# xmcd
#
# Track frame offsets: 
#        150
#        15910
#        35495
#        54738
#        62675
#        82208
#        106582
#        127163
#        139752
#        156347
#        175943
#        195065
#        200884
#        223700
#        242764
#        262202
#        282183
#
# Disc length: 3943 seconds
#
# Revision: 7
# Processed by: cddbd v1.5.2PL0 Copyright (c) Steve Scherf et al.
# Submitted via: ExactAudioCopyFreeDBPlugin 1.0
#
DISCID=fc0f6511
DTITLE=Heltah Skeltah - Nocturnal
DYEAR=1996
DGENRE=Hip-Hop
TTITLE0=Intro (Here We Come)
TTITLE1=Letha Brainz Blo
TTITLE2=Undastand
TTITLE3=Who Dat?
TTITLE4=Sean Price Feat. Illa Noyz
TTITLE5=Clan's, Posse's, Crew's, and Clik's
TTITLE6=Therapy Feat. Vinia Mojica
TTITLE7=Place To Be
TTITLE8=Soldiers Gone Psycho
TTITLE9=Tha Square Feat. The Representativz
TTITLE10=Da Wiggy Feat. Da Rockness Monstas
TTITLE11=Gettin Ass Gettin Ass
TTITLE12=Leflaur Leflah Eshkoshka Feat. Heltah Skeltah and O.G.C. As The
TTITLE12=Fab 5
TTITLE13=Prowl Feat. Louieville Sluggah
TTITLE14=Grate Unknown
TTITLE15=Operation Lockdown
TTITLE16=Outro
EXTD=www.RapMusicGuide.com
EXTT0=
EXTT1=
EXTT2=
EXTT3=
EXTT4=featuring illa noize
EXTT5=
EXTT6=vinia mojica
EXTT7=
EXTT8=
EXTT9=Featuring tha reprasentatives
EXTT10=
EXTT11=
EXTT12=featuring O.G.C
EXTT13=
EXTT14=
EXTT15=
EXTT16=
PLAYORDER=
